Coordinates
version=1
nRows=14
nColumns=36
inDegrees=yes

Units are S.I. units (second, meters, Newtons, ...)
If the header above contains a line with 'inDegrees', this indicates whether rotational values are in degrees (yes) or radians (no).

endheader
time	pelvis_tilt	pelvis_list	pelvis_rotation	pelvis_tx	pelvis_ty	pelvis_tz	hip_flexion_r	hip_adduction_r	hip_rotation_r	knee_angle_r	knee_angle_r_beta	ankle_angle_r	subtalar_angle_r	mtp_angle_r	hip_flexion_l	hip_adduction_l	hip_rotation_l	knee_angle_l	knee_angle_l_beta	ankle_angle_l	subtalar_angle_l	mtp_angle_l	lumbar_extension	lumbar_bending	lumbar_rotation	arm_flex_r	arm_add_r	arm_rot_r	elbow_flex_r	pro_sup_r	arm_flex_l	arm_add_l	arm_rot_l	elbow_flex_l	pro_sup_l
     14.88333330	      0.88267713	      4.92624760	      1.15469481	      0.68244771	      1.03432482	      0.81761082	     11.40300661	     -7.99787388	      1.59339456	     63.59171529	      1.10988481	    -17.06113877	    -14.94913499	     -7.49999987	     13.74993096	      5.31115980	     -0.75009336	     23.64749945	      0.41272673	      7.03808052	     -6.04959260	     -7.49999987	    -13.03199967	     -2.23577866	      4.10104632	      6.08084273	    -10.91772554	     -2.46187867	     22.48713387	     74.23782497	      3.72209013	     -7.00379852	     -4.03096871	     19.77880594	     72.69617868
     14.90000000	      1.08191334	      4.76422635	      1.13658507	      0.68238511	      1.03480247	      0.81448477	     13.63762322	     -7.75315758	      1.73214942	     63.77548202	      1.11309214	    -12.92940331	    -15.48911099	     -7.49999987	     11.71187707	      5.22735275	     -0.88775078	     22.44218343	      0.39168999	      7.46948021	     -5.63215666	     -7.49999987	    -13.42353986	     -1.96788558	      3.70956035	      5.72475076	    -10.70759423	     -2.18146223	     21.63033264	     74.29327680	      5.45349791	     -7.20087022	     -3.56643941	     21.24354968	     72.85565453
     14.91666670	      1.30126356	      4.47211284	      1.11726993	      0.68129808	      1.03800203	      0.81382224	     15.69048294	     -7.35558605	      1.95481979	     62.77346624	      1.09560367	     -8.93559571	    -15.99986908	     -7.49999987	      9.64975363	      5.01801644	     -0.92443737	     21.20096681	      0.37002668	      7.87257956	     -5.16752950	     -7.49999987	    -13.82372690	     -1.50290553	      3.35313430	      5.40414345	    -10.56065621	     -1.97407698	     20.66116739	     73.75337302	      6.99878561	     -7.48761898	     -3.37342846	     22.91231792	     72.46535168
     14.93333330	      1.24473219	      4.02483994	      1.20755573	      0.67837071	      1.04211921	      0.81589682	     17.59856048	     -6.79114042	      1.96788709	     60.40243348	      1.05422134	     -5.61800983	    -16.23888037	     -7.49999987	      7.86679179	      4.62384415	     -0.85256784	     19.88417322	      0.34704429	      8.44288508	     -4.54670687	     -7.49999987	    -13.90841247	     -0.87142228	      3.15913169	      4.89444093	    -10.51049452	     -1.89523366	     19.78806851	     73.28044385	      8.46549759	     -7.77922238	     -3.40654175	     24.82097598	     72.10213112
     14.95000000	      1.12535936	      3.42464214	      1.24700822	      0.67438743	      1.04592524	      0.81918029	     19.09933395	     -6.04317378	      1.75741366	     56.81214569	      0.99155900	     -2.63431658	    -15.87434314	     -7.49999987	      6.13657669	      4.02291573	     -0.85124263	     18.43853692	      0.32181318	      8.94877465	     -4.00634431	     -7.49999987	    -13.95714999	     -0.07829114	      2.97475075	      4.53114504	    -10.48823200	     -1.88870558	     18.73328975	     72.86493960	      9.89285268	     -8.14413415	     -3.49666029	     26.93317299	     71.84401317
     14.96666670	      0.86228338	      2.88190691	      1.34251864	      0.67150544	      1.04845203	      0.82150429	     20.33694848	     -5.36910050	      1.32398225	     52.30092201	      0.91282329	     -0.13580955	    -15.00088411	     -7.49999987	      4.59071198	      3.46709623	     -0.88251396	     16.95491665	      0.29591912	      9.48636839	     -3.21835979	     -7.49999987	    -13.86007767	      0.64050257	      1.90953364	      4.78819269	    -10.33105100	     -1.23584605	     16.85042810	     75.87816112	     10.55379183	     -8.68154648	     -5.55292835	     30.13608499	     75.07718304
     14.98333330	      0.70750746	      2.47615950	      1.36121183	      0.66987499	      1.04963082	      0.82268410	     21.16604916	     -4.82020430	      0.91723502	     47.12171235	      0.82242903	      1.57750363	    -13.96444165	     -7.49999987	      2.99051478	      3.07474835	     -0.84060540	     15.47055459	      0.27001211	      9.70960325	     -2.79211278	     -7.49999987	    -13.96858879	      1.10383812	      2.11073227	      3.91638372	    -10.24417838	     -1.82042230	     16.25964427	     74.78712407	     12.04348303	     -9.02944273	     -5.50485513	     32.56672646	     74.31113171
     15.00000000	      0.55481237	      2.32854992	      1.42982838	      0.66836277	      1.04971387	      0.82348580	     21.73507729	     -4.62426611	      0.46594345	     41.45596632	      0.72354311	      2.64401668	    -12.56923449	     -7.49999987	      1.56241893	      2.90939519	     -0.86454306	     14.21478198	      0.24809475	      9.88401931	     -2.23887439	     -7.49999987	    -14.07734007	      1.21346019	      1.90164831	      3.22126119	     -9.94077569	     -2.42701783	     15.58808197	     74.38286524	     13.26178642	     -9.74838987	     -5.18275676	     35.22269993	     74.16778728
     15.01666670	      0.33158597	      2.34097060	      1.49846308	      0.66590164	      1.04942211	      0.82384508	     22.15063590	     -4.68062068	      0.07902024	     35.39794978	      0.61781077	      2.67371393	    -11.20919483	     -7.49999987	      0.38059336	      2.89105883	     -0.74432343	     13.14219242	      0.22937453	      9.80895226	     -2.21213999	     -7.49999987	    -14.14283747	      1.12715341	      1.85540666	      2.30859583	     -9.68289039	     -2.85118043	     15.32092802	     73.75524583	     14.73951038	    -10.34468679	     -5.11975414	     37.80835622	     73.62382227
     15.03333330	      0.23631620	      2.69471577	      1.65889473	      0.66177753	      1.04783710	      0.82395965	     22.30969204	     -5.22035995	     -0.40491528	     29.22756559	      0.51011725	      2.30126459	     -9.45242871	     -7.49999987	     -0.82894974	      3.17778019	     -0.60617230	     12.16365808	      0.21229588	      9.77335650	     -2.14265699	     -7.49999987	    -14.47119688	      0.64039735	      1.24442954	      1.64791404	     -9.25974998	     -4.10291685	     15.44495731	     73.91519088	     16.08529938	    -11.45140609	     -4.51753478	     41.06155057	     73.76001688
     15.05000000	     -0.06907568	      3.20238156	      1.85133491	      0.65692421	      1.04425118	      0.82429868	     22.71752615	     -5.94601838	     -0.92188094	     23.20637459	      0.40502764	      1.88925203	     -7.59377502	     -7.49999987	     -1.79088310	      3.64376101	     -0.15812899	     11.27521429	      0.19678961	      9.82559497	     -2.53257865	     -7.49999987	    -14.57474519	     -0.04577279	      0.67162966	      0.96707748	     -8.93417411	     -5.34208252	     15.59299119	     74.10203998	     17.70581307	    -12.43947429	     -3.91293868	     43.94452348	     73.62361477
     15.06666670	     -0.49900351	      3.75128520	      1.86034369	      0.65458194	      1.03898626	      0.82540452	     23.30572537	     -6.60635508	     -1.51637174	     17.34359891	      0.30270291	      2.36092245	     -4.96636287	     -7.49999987	     -2.85099538	      4.15322081	      0.12262414	     10.27885429	      0.17939985	     10.55305924	     -2.31330582	     -7.49999987	    -14.39639469	     -0.78010590	      0.01580088	      0.26546025	     -8.63289377	     -6.80696905	     15.80334215	     74.99741742	     19.13200145	    -13.43256777	     -3.56000000	     46.29650075	     73.47172633
     15.08333330	     -1.09841493	      4.15566282	      1.95047716	      0.65626008	      1.03306015	      0.82689414	     24.09361483	     -7.04473639	     -2.25773879	     12.00053342	      0.20944882	      3.99137489	     -2.04265883	     -7.49999987	     -3.89265578	      4.53788868	      0.92437677	      9.40441283	      0.16413797	     11.50747720	     -2.28693427	     -7.49999987	    -13.83256421	     -1.32167571	     -0.92419992	     -0.31329822	     -8.35045988	     -8.19596442	     15.40320123	     75.84356645	     19.93348805	    -14.42726941	     -3.28719383	     48.90252531	     72.83561834
     15.10000000	     -1.66889232	      4.25397307	      1.95216052	      0.65991620	      1.02872732	      0.82860922	     24.90580495	     -7.04930214	     -2.85267863	      7.55287033	      0.13182246	      6.20506555	      0.87266335	     -7.49999987	     -4.99751264	      4.59036384	      1.57963642	      8.84241232	      0.15432921	     12.78067197	     -1.97310965	     -7.49999987	    -12.94656669	     -1.45829337	     -1.80159083	     -0.92825636	     -8.21242084	     -9.02217688	     14.66958982	     76.56811123	     20.28614638	    -15.28639439	     -3.07756520	     51.04441744	     72.15159052
